<svg xmlns="http://www.w3.org/2000/svg" viewBox="0 0 543.66 768"><defs><style>.cls-1{fill:#a76ae4;}.cls-2{fill:#c7a8fc;}</style></defs><title>Asset 2</title><g id="Layer_2" data-name="Layer 2"><g id="Layer_1-2" data-name="Layer 1"><path class="cls-1" d="M496,0s41,84-49,150c-18.44,13.52-35.32,19.7-51.41,22.05h0c-20.74-2.13-41.16-6-63.14-2.82C293.82,165.3,253.71,167.45,200,232,96,357,0,768,0,768V0Z"/><path class="cls-2" d="M395.59,172.05c16.09-2.35,33-8.53,51.41-22.05C537,84,496,0,496,0h38.34s41,84-49,150C451.8,174.59,423.41,174.89,395.59,172.05Z"/><path class="cls-2" d="M332.44,169.23c-27.64,4-57.75,19.09-94.1,62.77-104,125-200,536-200,536H0S96,357,200,232C253.71,167.45,293.82,165.3,332.44,169.23Z"/></g></g></svg>